<svg t="1588148339712" class="icon" viewBox="0 0 1024 1024" version="1.1" xmlns="http://www.w3.org/2000/svg" p-id="10186" width="16" height="16"><path d="M512 150.08c-338.304 0-512 340.928-512 340.928S131.072 832 512 832c345.024 0 512-339.648 512-339.648S855.616 150.08 512 150.08L512 150.08 512 150.08zM512.768 704.128c-123.712 0-213.12-93.248-213.12-213.12s89.408-213.12 213.12-213.12c123.712 0 213.12 93.248 213.12 213.12S636.48 704.128 512.768 704.128L512.768 704.128 512.768 704.128zM512.768 363.136C442.112 363.264 384.896 422.528 384.896 491.008c0 68.48 57.216 127.872 127.872 127.872 70.72 0 127.872-59.392 127.872-127.872C640.64 422.528 583.488 363.008 512.768 363.136L512.768 363.136 512.768 363.136z" p-id="10187" fill="#AAAAAA"></path></svg>