<?xml version="1.0" encoding="utf-8"?>
<svg version="1.1" xmlns:xlink="http://www.w3.org/1999/xlink" width="25px" height="20px" xmlns="http://www.w3.org/2000/svg">
  <g transform="matrix(1 0 0 1 -193 -15 )">
    <path d="M 24.3716032608696 8.84467265725289  C 24.7905344202899 9.14420196833547  25 9.52931108258451  25 10  C 25 10.4621309370988  24.7905344202899 10.8515190415062  24.3716032608696 11.1681643132221  L 13.3152173913043 19.5250320924262  C 12.8736413043478 19.8416773641421  12.3584692028986 20  11.7697010869565 20  C 11.1922554347826 20  10.6827445652174 19.8416773641421  10.2411684782609 19.5250320924262  L 8.96739130434783 18.5622593068036  C 8.53713768115942 18.2370560547711  8.32201086956522 17.8476679503637  8.32201086956522 17.3940949935815  C 8.32201086956522 16.9405220367993  8.53713768115942 16.551133932392  8.96739130434783 16.2259306803594  L 13.9436141304348 12.4646983311938  L 1.98709239130435 12.4646983311938  C 1.39832427536232 12.4646983311938  0.91995018115942 12.3042362002567  0.551970108695652 11.9833119383825  C 0.183990036231884 11.6623876765083  0 11.2751390671801  0 10.8215661103979  L 0 9.17843388960205  C 0 8.72486093281985  0.183990036231884 8.33761232349166  0.551970108695652 8.01668806161746  C 0.91995018115942 7.69576379974326  1.39832427536232 7.53530166880616  1.98709239130435 7.53530166880616  L 13.9436141304348 7.53530166880616  L 8.96739130434783 3.7612323491656  C 8.53713768115942 3.45314505776637  8.32201086956522 3.06803594351733  8.32201086956522 2.60590500641849  C 8.32201086956522 2.14377406931964  8.53713768115942 1.7586649550706  8.96739130434783 1.45057766367137  L 10.2411684782609 0.487804878048781  C 10.6714221014493 0.162601626016259  11.1809329710145 0  11.7697010869565 0  C 12.3697916666667 0  12.8849637681159 0.162601626016259  13.3152173913043 0.487804878048781  L 24.3716032608696 8.84467265725289  Z " fill-rule="nonzero" fill="#f9f9f9" stroke="none" transform="matrix(1 0 0 1 193 15 )" />
  </g>
</svg>