<?xml version="1.0" encoding="utf-8"?>
<svg version="1.1" xmlns:xlink="http://www.w3.org/1999/xlink" width="33px" height="32px" xmlns="http://www.w3.org/2000/svg">
  <g>
    <path d="M 23.869140625 14.8541666666667  C 24.083984375 15.0763888888889  24.1341145833333 15.3194444444444  24.01953125 15.5833333333333  C 23.9049479166667 15.8611111111111  23.6901041666667 16  23.375 16  L 19.25 16  L 19.25 23.3333333333333  C 19.25 23.5277777777778  19.185546875 23.6875  19.056640625 23.8125  C 18.927734375 23.9375  18.7630208333333 24  18.5625 24  L 14.4375 24  C 14.2369791666667 24  14.072265625 23.9375  13.943359375 23.8125  C 13.814453125 23.6875  13.75 23.5277777777778  13.75 23.3333333333333  L 13.75 16  L 9.625 16  C 9.42447916666667 16  9.259765625 15.9375  9.130859375 15.8125  C 9.001953125 15.6875  8.9375 15.5277777777778  8.9375 15.3333333333333  C 8.9375 15.1666666666667  9.00911458333333 15  9.15234375 14.8333333333333  L 16.005859375 8.1875  C 16.1634114583333 8.0625  16.328125 8  16.5 8  C 16.671875 8  16.8365885416667 8.0625  16.994140625 8.1875  L 23.869140625 14.8541666666667  Z M 22.365234375 6.1875  C 20.5748697916667 5.17361111111111  18.6197916666667 4.66666666666667  16.5 4.66666666666667  C 14.3802083333333 4.66666666666667  12.4251302083333 5.17361111111111  10.634765625 6.1875  C 8.84440104166667 7.20138888888889  7.42643229166667 8.57638888888889  6.380859375 10.3125  C 5.33528645833333 12.0486111111111  4.8125 13.9444444444444  4.8125 16  C 4.8125 18.0555555555556  5.33528645833333 19.9513888888889  6.380859375 21.6875  C 7.42643229166667 23.4236111111111  8.84440104166667 24.7986111111111  10.634765625 25.8125  C 12.4251302083333 26.8263888888889  14.3802083333333 27.3333333333333  16.5 27.3333333333333  C 18.6197916666667 27.3333333333333  20.5748697916667 26.8263888888889  22.365234375 25.8125  C 24.1555989583333 24.7986111111111  25.5735677083333 23.4236111111111  26.619140625 21.6875  C 27.6647135416667 19.9513888888889  28.1875 18.0555555555556  28.1875 16  C 28.1875 13.9444444444444  27.6647135416667 12.0486111111111  26.619140625 10.3125  C 25.5735677083333 8.57638888888889  24.1555989583333 7.20138888888889  22.365234375 6.1875  Z M 30.787109375 7.96875  C 32.2623697916667 10.4201388888889  33 13.0972222222222  33 16  C 33 18.9027777777778  32.2623697916667 21.5798611111111  30.787109375 24.03125  C 29.3118489583333 26.4826388888889  27.3102213541667 28.4236111111111  24.7822265625 29.8541666666667  C 22.2542317708333 31.2847222222222  19.4934895833333 32  16.5 32  C 13.5065104166667 32  10.7457682291667 31.2847222222222  8.2177734375 29.8541666666667  C 5.68977864583333 28.4236111111111  3.68815104166667 26.4826388888889  2.212890625 24.03125  C 0.737630208333334 21.5798611111111  0 18.9027777777778  0 16  C 0 13.0972222222222  0.737630208333334 10.4201388888889  2.212890625 7.96875  C 3.68815104166667 5.51736111111111  5.68977864583333 3.57638888888889  8.2177734375 2.14583333333333  C 10.7457682291667 0.715277777777771  13.5065104166667 0  16.5 0  C 19.4934895833333 0  22.2542317708333 0.715277777777771  24.7822265625 2.14583333333333  C 27.3102213541667 3.57638888888889  29.3118489583333 5.51736111111111  30.787109375 7.96875  Z " fill-rule="nonzero" fill="#cccccc" stroke="none" />
  </g>
</svg>