<svg t="1578537154749" class="icon" viewBox="0 0 1024 1024" version="1.1" xmlns="http://www.w3.org/2000/svg" p-id="4280" width="10" height="10"><path d="M924.356582 30.116925 188.048887 30.116925c-77.321016 0-117.774357 40.453341-117.774357 117.774357l0 709.634196 1.433652-10.786671c-0.938372 6.559393-1.433652 13.260002-1.433652 20.079314 0 77.622892 49.442062 127.064954 127.064954 127.064954l716.228381 0c22.178115 0 40.156582-17.978467 40.156582-40.157605L953.724447 844.040349 953.724447 701.997262 953.724447 59.486836c0.001023-11.391445-17.977443-29.369911-40.155559-29.369911L924.356582 30.116925zM324.406484 86.159312l174.404122 0 0 364.643907-88.593757-40.157605-85.809341 40.157605L324.407508 86.159312 324.406484 86.159312zM897.684106 937.838641 186.55486 937.838641c-33.267685 0-60.235896-26.968212-60.235896-60.235896s26.968212-60.233849 60.235896-60.233849l711.129246 0L897.684106 937.838641 897.684106 937.838641zM897.684106 761.324462 186.55486 761.324462c-21.557992 0-41.97909 4.858658-60.235896 13.533224L126.318964 139.8c0-36.551474 19.854187-53.639664 50.944276-53.639664l93.796246 0L271.059486 517.243421c0 7.402597 3.64911 13.71435 10.06831 17.406438 6.417153 3.689019 13.706163 3.671623 20.10899-0.052189l97.943706-56.984852c6.335289-3.686972 13.532201-3.742231 19.924795-0.152473l103.146195 57.905828c6.40692 3.597945 13.627369 3.533476 19.973914-0.181125 6.340405-3.712555 9.93221-9.975189 9.93221-17.327644L552.157605 86.161359l345.525478 0 0 675.164127L897.684106 761.325485 897.684106 761.324462z" p-id="4281" fill="#1296db"></path></svg>