<svg t="1578127580828" class="icon" viewBox="0 0 1024 1024" version="1.1" xmlns="http://www.w3.org/2000/svg" p-id="2636" width="16" height="16"><path d="M845.162667 368.597333l-200-201.642666a25.728 25.728 0 0 0-18.56-7.786667c-6.912 0-13.674667 2.88-18.56 7.786667L217.109333 561.109333a26.197333 26.197333 0 0 0-7.744 18.709334c0 6.954667 2.858667 13.802667 7.744 18.709333l200.106667 201.642667c4.885333 5.034667 11.541333 7.786667 18.56 7.786666 6.912 0 13.674667-2.88 18.56-7.786666l390.826667-394.026667c10.24-10.432 10.24-27.221333 0-37.546667zM435.669333 743.786667l-162.752-164.074667 353.706667-356.608 162.752 164.096-353.706667 356.586667zM184.512 628.288a26.282667 26.282667 0 0 0-37.226667 0l-29.738666 29.866667a27.221333 27.221333 0 0 0-6.656 11.157333L27.114667 950.954667c-2.730667 9.365333-0.362667 19.306667 6.421333 26.282666 4.992 5.162667 11.776 7.914667 18.794667 7.914667 2.368 0 4.757333-0.234667 7.018666-0.96L343.466667 903.936c4.394667-1.322667 8.341333-3.605333 11.541333-6.826667l29.397333-29.632c10.24-10.432 10.24-27.221333 0-37.546666l-199.893333-201.642667z m138.133333 226.453333L91.242667 920.128l68.16-229.098667 6.421333-6.485333 162.752 164.202667-5.930667 5.994666zM873.237333 339.093333c4.885333 5.034667 11.541333 7.786667 18.56 7.786667 6.890667 0 13.674667-2.752 18.56-7.786667l56.874667-57.322666c20.949333-21.12 42.24-46.890667 42.24-79.04 0-32.149333-21.290667-57.941333-42.24-79.04l-80.426667-81.088C865.877333 21.461333 840.298667 0 808.405333 0 776.533333 0 750.933333 21.461333 730.005333 42.581333l-56.874666 57.450667a26.794667 26.794667 0 0 0 0 37.546667l200.106666 201.514666zM767.36 80.128c18.090667-18.112 31.530667-26.986667 41.173333-26.986667s23.082667 8.746667 41.173334 26.986667l80.426666 81.088c17.962667 18.24 26.773333 31.786667 26.773334 41.493333 0 9.706667-8.682667 23.274667-26.773334 41.493334l-38.314666 38.634666-162.752-164.096 38.293333-38.613333zM985.450667 654.314667l-142.293334-143.573334a23.424 23.424 0 0 0-17.493333-7.786666c-12.970667 0-23.552 10.666667-23.552 23.744 0 6.954667 2.965333 13.312 7.850667 17.621333l132.650666 133.738667c46.037333 46.421333 46.037333 74.133333 0 120.554666l-157.056 158.208-50.090666-50.496 66.624-67.178666c4.288-4.309333 7.018667-10.304 7.018666-16.917334a23.68 23.68 0 0 0-23.552-23.744c-6.549333 0-12.373333 2.645333-16.661333 6.954667l-66.752 67.285333 25.365333 25.578667-58.666666-59.157333 83.285333-83.968c4.288-4.309333 6.890667-10.197333 6.890667-16.789334a23.68 23.68 0 0 0-23.552-23.744c-6.549333 0-12.373333 2.645333-16.661334 6.954667l-83.285333 83.968-42.944-43.306667a23.36 23.36 0 0 0-16.896-7.189333c-12.970667 0-23.552 10.666667-23.552 23.744 0 6.592 2.624 12.48 6.890667 16.789333l193.088 194.794667L785.450667 1024l200-201.642667a119.488 119.488 0 0 0 0-168.042666zM229.717333 461.312c12.970667 0 23.552-10.666667 23.552-23.744 0-6.485333-2.624-12.352-6.784-16.682667l-25.941333-26.154666 82.794667-83.477334a23.808 23.808 0 0 0-16.170667-41.024c-6.549333 0-12.373333 2.645333-16.661333 6.954667L187.242667 361.173333l-33.301334-33.578666L203.797333 277.333333c4.394667-4.330667 7.018667-10.325333 7.018667-16.917333a23.68 23.68 0 0 0-23.552-23.744c-6.549333 0-12.48 2.752-16.768 7.082667l-49.856 50.261333-49.962667-50.368 156.928-158.208c46.037333-46.421333 73.536-46.421333 119.573334 0l116.117333 117.056 0.106667-0.128c4.288 4.202667 10.112 6.826667 16.533333 6.826667a23.701333 23.701333 0 0 0 14.4-42.453334l-123.733333-124.736a117.141333 117.141333 0 0 0-166.677334 0L4.053333 243.52l208.32 210.026667c4.266667 4.778667 10.453333 7.765333 17.344 7.765333z" p-id="2637" fill="#333333"></path></svg>